<?xml version="1.0" encoding="UTF-8"?>
<!DOCTYPE svg PUBLIC "-//W3C//DTD SVG 1.1//EN" "http://www.w3.org/Graphics/SVG/1.1/DTD/svg11.dtd">
<!-- Creator: CorelDRAW X7 -->
<svg xmlns="http://www.w3.org/2000/svg" xml:space="preserve" width="22px" height="22px" version="1.1" style="shape-rendering:geometricPrecision; text-rendering:geometricPrecision; image-rendering:optimizeQuality; fill-rule:evenodd; clip-rule:evenodd"
viewBox="0 0 22 22"
 xmlns:xlink="http://www.w3.org/1999/xlink">
 <defs>
  <style type="text/css">
   <![CDATA[
    .fil0 {fill:none}
    .fil2 {fill:#996633}
    .fil1 {fill:url(#id0)}
   ]]>
  </style>
  <radialGradient id="id0" gradientUnits="userSpaceOnUse" gradientTransform="matrix(0.387769 -1.21012 1.10791 0.423541 0 17)" cx="11.0933" cy="6.44127" r="9.28516" fx="11.0933" fy="6.44127">
   <stop offset="0" style="stop-opacity:1; stop-color:#0CF543"/>
   <stop offset="1" style="stop-opacity:1; stop-color:#006633"/>
  </radialGradient>
 </defs>
 <g id="Layer_x0020_1">
  <metadata id="CorelCorpID_0Corel-Layer"/>
  <rect class="fil0" width="21.9988" height="21.9988"/>
  <path class="fil1" d="M8 2c-1,0 2,-3 4,-2 2,1 2,3 2,3 0,-3 6,2 4,5 -1,1 -1,0 1,1 1,2 -1,4 -4,4 -2,0 -1,-1 -3,-1 -1,-1 1,-2 -1,-1 -10,3 -8,-3 -6,-4 0,0 -4,-2 -1,-4 1,0 2,-1 4,0 0,0 0,-1 0,-1z"/>
  <path class="fil2" d="M9 12c1,4 -2,5 -2,5l3 1c0,1 1,3 1,4l2 -4 2 -1c1,0 -3,-1 -2,-5 0,0 0,0 -1,-1 -1,-1 -3,-1 -3,1z"/>
 </g>
</svg>
