<?xml version="1.0" encoding="UTF-8"?>
<!DOCTYPE svg PUBLIC "-//W3C//DTD SVG 1.1//EN" "http://www.w3.org/Graphics/SVG/1.1/DTD/svg11.dtd">
<!-- Creator: CorelDRAW X7 -->
<svg xmlns="http://www.w3.org/2000/svg" xml:space="preserve" width="22px" height="22px" version="1.1" style="shape-rendering:geometricPrecision; text-rendering:geometricPrecision; image-rendering:optimizeQuality; fill-rule:evenodd; clip-rule:evenodd"
viewBox="0 0 21 21"
 xmlns:xlink="http://www.w3.org/1999/xlink">
 <defs>
  <style type="text/css">
   <![CDATA[
    .fil1 {fill:none}
    .fil0 {fill:url(#id0)}
   ]]>
  </style>
  <linearGradient id="id0" gradientUnits="userSpaceOnUse" x1="8.54891" y1="6.93885" x2="20.3301" y2="4.26171">
   <stop offset="0" style="stop-opacity:1; stop-color:black"/>
   <stop offset="0.419608" style="stop-opacity:1; stop-color:#165431"/>
   <stop offset="1" style="stop-opacity:1; stop-color:#196139"/>
  </linearGradient>
 </defs>
 <g id="Layer_x0020_1">
  <metadata id="CorelCorpID_0Corel-Layer"/>
  <path class="fil0" d="M5 8c0,0 0,-4 1,-3 1,0 0,3 0,3 1,0 2,0 2,0 1,-2 2,-1 2,-3 0,-1 1,-2 0,-2 -1,0 -1,0 -1,0 0,-1 0,0 -1,-1 0,-1 1,-2 2,-2 1,1 1,1 1,1 0,-1 0,-1 0,-1 1,1 1,2 0,2 0,-1 1,1 1,1 2,-1 1,-1 2,1 1,1 1,2 1,3 0,1 0,1 -1,1 0,0 0,1 0,1 -2,0 -1,-1 -1,0 0,1 -1,4 0,4 3,0 2,2 4,3 0,0 -1,1 -1,1 -1,1 0,1 -1,1 -2,0 -1,-1 -1,-1 1,-1 1,-1 1,-1 0,-1 -2,-2 -2,-2 -1,0 -1,0 -1,0 0,0 -1,0 -1,0 0,-2 0,-1 0,-2 0,-1 -1,0 -1,1 0,0 -1,2 -1,3 1,1 1,1 1,1 0,1 -1,2 -1,2 -1,0 -1,1 -1,0 -1,0 -1,-1 0,-1 1,-2 0,-1 0,-3 0,-1 0,0 0,-1 0,-2 0,-3 2,-4 0,0 0,0 0,-1 0,-1 -1,-1 -2,0 -1,0 -1,1 -2,1l0 11 -1 0 0 -12 0 0c0,0 0,0 0,0l0 -1z"/>
  <rect class="fil1" width="21.0614" height="20.6404"/>
 </g>
</svg>
