<?xml version="1.0" encoding="UTF-8"?>
<!DOCTYPE svg PUBLIC "-//W3C//DTD SVG 1.1//EN" "http://www.w3.org/Graphics/SVG/1.1/DTD/svg11.dtd">
<!-- Creator: CorelDRAW X7 -->
<svg xmlns="http://www.w3.org/2000/svg" xml:space="preserve" width="22px" height="22px" version="1.1" style="shape-rendering:geometricPrecision; text-rendering:geometricPrecision; image-rendering:optimizeQuality; fill-rule:evenodd; clip-rule:evenodd"
viewBox="0 0 21 21"
 xmlns:xlink="http://www.w3.org/1999/xlink">
 <defs>
  <style type="text/css">
   <![CDATA[
    .fil1 {fill:none}
    .fil0 {fill:url(#id0)}
   ]]>
  </style>
  <linearGradient id="id0" gradientUnits="userSpaceOnUse" x1="5.5482" y1="11.0909" x2="16.5648" y2="10.0182">
   <stop offset="0" style="stop-opacity:1; stop-color:black"/>
   <stop offset="1" style="stop-opacity:1; stop-color:#2F9E54"/>
  </linearGradient>
 </defs>
 <g id="Layer_x0020_1">
  <metadata id="CorelCorpID_0Corel-Layer"/>
  <path class="fil0" d="M9 13l-1 5c0,1 1,1 1,0l1 -4 1 -3c0,0 1,2 1,3 0,0 2,2 3,3 1,0 1,0 1,0 0,0 1,0 0,-1 0,0 -3,-3 -3,-3l0 -4c0,0 0,0 1,0 1,0 1,-2 1,-3 0,0 0,-2 0,-2 -1,-2 -1,-2 -3,-2 0,1 0,0 0,0 0,0 0,0 0,0 0,-1 -1,-2 -1,-2 -1,0 -2,1 -2,2 0,0 0,0 1,1 0,0 0,0 0,0l0 0 0 1 -1 3 -2 2 0 -1 -1 0 0 13 0 0 1 -12 2 0 1 -2 0 2c0,1 -1,3 -1,4z"/>
  <rect class="fil1" width="21.0614" height="20.6404"/>
 </g>
</svg>
